<svg width="788" height="690" viewBox="0 0 788 690" fill="none" xmlns="http://www.w3.org/2000/svg">
<path d="M501.201 100.734C337.397 137.234 37.1503 304.606 27.868 413.281C18.5856 521.956 455.779 330.752 569.93 264.794C625.624 237.647 754.289 319.464 728.702 388.234C703.114 457.005 368.014 515.538 337.397 602.788" stroke="#52A3FC" stroke-opacity="0.5" stroke-width="1.73576" stroke-linecap="round" stroke-linejoin="round" stroke-dasharray="8.68 8.68"/>
<g filter="url(#filter0_dddddd_3_2935)">
<g clip-path="url(#clip0_3_2935)">
<rect x="80.0486" y="177.144" width="546.714" height="338.995" rx="9.60553" fill="url(#paint0_linear_3_2935)" fill-opacity="0.95"/>
<rect x="130.477" y="189.951" width="72.8419" height="11.2064" rx="5.60322" fill="#DEE2ED"/>
<g clip-path="url(#clip1_3_2935)">
<path d="M529.191 201.372C528.729 200.807 528.403 200.519 528.403 198.961C528.403 197.535 527.675 197.026 527.075 196.78C526.995 196.747 526.92 196.672 526.896 196.59C526.791 196.232 526.496 195.917 526.104 195.917C525.712 195.917 525.417 196.232 525.313 196.59C525.289 196.673 525.214 196.747 525.134 196.78C524.534 197.027 523.806 197.533 523.806 198.961C523.805 200.519 523.479 200.807 523.018 201.372C522.826 201.606 522.994 201.957 523.328 201.957H528.882C529.215 201.957 529.381 201.605 529.191 201.372ZM527.255 201.957V202.245C527.255 202.55 527.134 202.843 526.918 203.059C526.702 203.275 526.409 203.396 526.104 203.396C525.799 203.396 525.506 203.275 525.291 203.059C525.075 202.843 524.954 202.55 524.954 202.245V201.957" fill="#DEE2ED"/>
<path d="M527.255 201.957V202.245C527.255 202.55 527.134 202.843 526.918 203.059C526.702 203.275 526.409 203.396 526.104 203.396C525.799 203.396 525.506 203.275 525.291 203.059C525.075 202.843 524.954 202.55 524.954 202.245V201.957M529.191 201.372C528.729 200.807 528.403 200.519 528.403 198.961C528.403 197.535 527.675 197.026 527.075 196.78C526.995 196.747 526.92 196.672 526.896 196.59C526.791 196.232 526.496 195.917 526.104 195.917C525.712 195.917 525.417 196.232 525.313 196.59C525.289 196.673 525.214 196.747 525.134 196.78C524.534 197.027 523.806 197.533 523.806 198.961C523.805 200.519 523.479 200.807 523.018 201.372C522.826 201.606 522.994 201.957 523.328 201.957H528.882C529.215 201.957 529.381 201.605 529.191 201.372Z" stroke="#DEE2ED" stroke-width="0.511405" stroke-linecap="round" stroke-linejoin="round"/>
</g>
<rect x="543.715" y="191.552" width="16.0092" height="16.0092" rx="8.0046" fill="#DEE2ED" stroke="#DEE2ED" stroke-width="0.40023"/>
<rect x="563.126" y="191.352" width="37.2214" height="4.90282" rx="2.45141" fill="#DEE2ED"/>
<rect x="563.126" y="199.756" width="22.4129" height="4.20242" rx="2.10121" fill="#DEE2ED"/>
<path d="M608.327 198.542L610.353 200.568L612.379 198.542" fill="#DEE2ED"/>
<path d="M608.327 198.542L610.353 200.568L612.379 198.542" stroke="#DEE2ED" stroke-width="0.675388" stroke-linecap="round" stroke-linejoin="round"/>
<line x1="130.478" y1="215.765" x2="613.956" y2="215.766" stroke="#F0F5FF" stroke-width="0.40023"/>
<rect width="509.093" height="298.171" transform="translate(117.67 217.967)" fill="url(#paint1_linear_3_2935)" fill-opacity="0.4"/>
<rect x="130.678" y="230.974" width="294.97" height="124.071" rx="4.60265" fill="#FEFEFE"/>
<rect x="138.482" y="238.779" width="100.058" height="8.40483" rx="4.20242" fill="#DEE2ED"/>
<g clip-path="url(#clip2_3_2935)">
<rect x="138.682" y="266.194" width="114.466" height="69.2398" rx="4.60265" fill="white"/>
<rect x="151.29" y="275.6" width="25.2145" height="3.50201" rx="1.75101" fill="#52A3FC"/>
<rect x="146.487" y="304.417" width="51.2295" height="4.20242" rx="2.10121" fill="#DEE2ED"/>
<rect x="146.487" y="311.621" width="38.4221" height="4.20242" rx="2.10121" fill="#DEE2ED"/>
<g clip-path="url(#clip3_3_2935)">
<path d="M181.707 321.927C180.547 321.927 179.606 322.868 179.606 324.028C179.606 325.188 180.547 326.129 181.707 326.129C182.867 326.129 183.809 325.188 183.809 324.028C183.809 322.868 182.867 321.927 181.707 321.927Z" fill="#DEE2ED" stroke="#DEE2ED" stroke-width="0.480276" stroke-miterlimit="10"/>
<path d="M181.707 322.627V324.203H182.758" fill="#DEE2ED"/>
<path d="M181.707 322.627V324.203H182.758" stroke="#DEE2ED" stroke-width="0.480276" stroke-linecap="round" stroke-linejoin="round"/>
</g>
<rect x="146.487" y="320.426" width="31.218" height="4.20242" rx="2.10121" fill="#DEE2ED"/>
<rect x="146.487" y="292.81" width="98.8568" height="6.30363" rx="3.15181" fill="#DEE2ED"/>
<rect x="138.682" y="266.194" width="114.466" height="69.2398" rx="4.60265" stroke="#F0F3FA" stroke-width="0.40023"/>
<rect x="261.553" y="266.194" width="114.466" height="69.2398" rx="4.60265" fill="white"/>
<rect x="274.16" y="275.6" width="21.2122" height="3.50201" rx="1.75101" fill="#44C9A5"/>
<rect x="269.357" y="304.417" width="51.2295" height="4.20242" rx="2.10121" fill="#DEE2ED"/>
<rect x="269.357" y="311.621" width="38.4221" height="4.20242" rx="2.10121" fill="#DEE2ED"/>
<g clip-path="url(#clip4_3_2935)">
<path d="M302.976 321.927C301.816 321.927 300.875 322.868 300.875 324.028C300.875 325.188 301.816 326.129 302.976 326.129C304.136 326.129 305.078 325.188 305.078 324.028C305.078 322.868 304.136 321.927 302.976 321.927Z" fill="#DEE2ED" stroke="#DEE2ED" stroke-width="0.480276" stroke-miterlimit="10"/>
<path d="M302.976 322.627V324.203H304.027" fill="#DEE2ED"/>
<path d="M302.976 322.627V324.203H304.027" stroke="#DEE2ED" stroke-width="0.480276" stroke-linecap="round" stroke-linejoin="round"/>
</g>
<rect x="269.357" y="320.426" width="29.617" height="4.20242" rx="2.10121" fill="#DEE2ED"/>
<rect x="269.357" y="292.81" width="98.8568" height="6.30363" rx="3.15181" fill="#DEE2ED"/>
<rect x="261.553" y="266.194" width="114.466" height="69.2398" rx="4.60265" stroke="#F0F3FA" stroke-width="0.40023"/>
<rect x="384.424" y="266.194" width="114.466" height="69.2398" rx="4.60265" fill="white"/>
<rect x="397.031" y="275.6" width="20.4117" height="3.50201" rx="1.75101" fill="#F3935C"/>
<rect x="392.228" y="304.417" width="51.2295" height="4.20242" rx="2.10121" fill="#DEE2ED"/>
<rect x="392.228" y="311.621" width="38.4221" height="4.20242" rx="2.10121" fill="#DEE2ED"/>
<rect x="392.228" y="320.426" width="29.617" height="4.20242" rx="2.10121" fill="#DEE2ED"/>
<rect x="392.228" y="292.81" width="98.8568" height="6.30363" rx="3.15181" fill="#DEE2ED"/>
<rect x="384.424" y="266.194" width="114.466" height="69.2398" rx="4.60265" stroke="#F0F3FA" stroke-width="0.40023"/>
<rect x="267.956" y="343.839" width="3.20184" height="3.20184" rx="1.60092" fill="#77BAEE" stroke="#DEE2ED" stroke-width="0.40023"/>
<rect x="276.361" y="343.839" width="3.20184" height="3.20184" rx="1.60092" fill="#DEE2ED" stroke="#DEE2ED" stroke-width="0.40023"/>
<rect x="284.766" y="343.839" width="3.20184" height="3.20184" rx="1.60092" fill="#DEE2ED" stroke="#DEE2ED" stroke-width="0.40023"/>
</g>
<rect x="130.678" y="230.974" width="294.97" height="124.071" rx="4.60265" stroke="#F0F3FA" stroke-width="0.40023"/>
<g filter="url(#filter1_d_3_2935)">
<path d="M80.0486 177.144H109.265C113.686 177.144 117.27 180.728 117.27 185.148V508.134C117.27 512.555 113.686 516.139 109.265 516.139H80.0486V177.144Z" fill="#FEFEFE" fill-opacity="0.9"/>
<path d="M80.849 177.944H109.265C113.244 177.944 116.47 181.17 116.47 185.148V508.134C116.47 512.113 113.244 515.338 109.265 515.338H80.849V177.944Z" stroke="white" stroke-width="1.60092"/>
</g>
<path d="M96.0281 264.3V262.983C96.0281 262.789 96.1052 262.602 96.2424 262.465C96.3796 262.328 96.5657 262.251 96.7597 262.251H98.1479C98.2924 262.251 98.4336 262.294 98.5538 262.374L99.063 262.713C99.1832 262.794 99.3245 262.836 99.4689 262.836H102.32C102.514 262.836 102.701 262.913 102.838 263.051C102.975 263.188 103.052 263.374 103.052 263.568V264.3" fill="#DEE2ED"/>
<path d="M96.0281 264.3V262.983C96.0281 262.789 96.1052 262.602 96.2424 262.465C96.3796 262.328 96.5657 262.251 96.7597 262.251H98.1479C98.2924 262.251 98.4336 262.294 98.5538 262.374L99.063 262.713C99.1832 262.794 99.3245 262.836 99.4689 262.836H102.32C102.514 262.836 102.701 262.913 102.838 263.051C102.975 263.188 103.052 263.374 103.052 263.568V264.3" stroke="#DEE2ED" stroke-width="0.520299" stroke-linecap="round" stroke-linejoin="round"/>
<path d="M103.636 264.934L103.339 267.96C103.339 268.154 103.262 268.34 103.125 268.477C102.988 268.614 102.802 268.691 102.608 268.692H96.4716C96.2777 268.691 96.092 268.614 95.955 268.477C95.8181 268.34 95.7412 268.154 95.7412 267.96L95.4445 264.934C95.438 264.853 95.4484 264.772 95.4748 264.696C95.5012 264.619 95.5431 264.549 95.5979 264.49C95.6527 264.431 95.7192 264.383 95.7932 264.351C95.8673 264.318 95.9472 264.302 96.028 264.302H103.054C103.135 264.302 103.214 264.319 103.288 264.351C103.362 264.384 103.428 264.431 103.483 264.491C103.537 264.55 103.579 264.62 103.605 264.696C103.632 264.772 103.642 264.853 103.636 264.934V264.934Z" fill="#DEE2ED" stroke="#DEE2ED" stroke-width="0.520299" stroke-linecap="round" stroke-linejoin="round"/>
<g clip-path="url(#clip5_3_2935)">
<path d="M101.149 286.641C101.077 287.608 100.344 288.397 99.5389 288.397C98.7341 288.397 97.9997 287.609 97.9292 286.641C97.8561 285.635 98.5694 284.885 99.5389 284.885C100.508 284.885 101.222 285.654 101.149 286.641Z" fill="#DEE2ED" stroke="#DEE2ED" stroke-width="0.520299" stroke-linecap="round" stroke-linejoin="round"/>
<path d="M99.5401 289.566C97.9488 289.566 96.3336 290.444 96.0347 292.102C95.9987 292.301 96.1117 292.493 96.3208 292.493H102.759C102.969 292.493 103.082 292.301 103.046 292.102C102.747 290.444 101.132 289.566 99.5401 289.566Z" fill="#DEE2ED" stroke="#DEE2ED" stroke-width="0.520299" stroke-miterlimit="10"/>
</g>
<path d="M98.0765 311.899H100.418H102.759" fill="#DEE2ED"/>
<path d="M100.418 313.362V314.094C100.418 314.288 100.341 314.474 100.204 314.611C100.066 314.748 99.8802 314.826 99.6862 314.826H96.7595C96.5655 314.826 96.3793 314.748 96.2421 314.611C96.1049 314.474 96.0278 314.288 96.0278 314.094V309.704C96.0278 309.51 96.1049 309.324 96.2421 309.186C96.3793 309.049 96.5655 308.972 96.7595 308.972H99.5399C99.9439 308.972 100.418 309.3 100.418 309.704V310.436M101.589 313.362L103.052 311.899L101.589 310.436M98.0765 311.899H100.418H102.759" stroke="#DEE2ED" stroke-width="0.520299" stroke-linecap="round" stroke-linejoin="round"/>
<g clip-path="url(#clip6_3_2935)">
<path d="M99.5407 239.054C99.637 239.046 99.7342 239.042 99.8325 239.042C101.771 239.042 103.345 240.615 103.345 242.554C103.345 244.493 101.771 246.066 99.8325 246.066C99.0885 246.066 98.3637 245.83 97.7625 245.391C97.1613 244.953 96.7148 244.335 96.4873 243.627" fill="#DEE2ED"/>
<path d="M99.5407 239.054C99.637 239.046 99.7342 239.042 99.8325 239.042C101.771 239.042 103.345 240.615 103.345 242.554C103.345 244.493 101.771 246.066 99.8325 246.066C99.0885 246.066 98.3637 245.83 97.7625 245.391C97.1613 244.953 96.7148 244.335 96.4873 243.627" stroke="#DEE2ED" stroke-width="0.624359" stroke-miterlimit="10" stroke-linecap="round"/>
<path d="M99.542 238.457C97.4406 238.457 95.7373 240.16 95.7373 242.261C95.7365 242.797 95.8493 243.327 96.0682 243.816L99.542 242.261V238.457Z" fill="#DEE2ED" stroke="#DEE2ED" stroke-width="0.624359" stroke-linecap="round" stroke-linejoin="round"/>
</g>
<rect x="92.2558" y="199.357" width="12.8074" height="11.6067" rx="1.40081" fill="#DEE2ED" stroke="#DEE2ED" stroke-width="0.40023"/>
<path d="M81.8499 234.777V249.185C81.8499 250.112 81.1495 250.876 80.2489 250.975V232.987C81.1495 233.086 81.8499 233.85 81.8499 234.777Z" fill="#206ED9" stroke="#DEE2ED" stroke-width="0.40023"/>
<line x1="117.47" y1="198.756" x2="117.47" y2="474.114" stroke="#F0F5FF" stroke-width="0.40023"/>
</g>
<rect x="80.2487" y="177.344" width="546.314" height="338.595" rx="9.40541" stroke="#F5F7F8" stroke-width="0.40023"/>
</g>
<path fill-rule="evenodd" clip-rule="evenodd" d="M518.924 92.8569L508.189 99.3614L509.077 109.55C509.388 111.116 511.61 111.423 512.698 110.049L528.649 89.9303C529.646 88.6729 528.838 87.0282 527.226 87.0379L501.539 87.1898C499.782 87.2009 498.661 89.1266 499.708 90.3338L507.366 98.4482" fill="#52A3FC" fill-opacity="0.45"/>
<path d="M518.924 92.8569L508.189 99.3614L509.077 109.55C509.388 111.116 511.61 111.423 512.698 110.049L528.649 89.9303C529.646 88.6729 528.838 87.0282 527.226 87.0379L501.539 87.1898C499.782 87.2009 498.661 89.1266 499.708 90.3338L507.366 98.4482" stroke="#0771E5" stroke-opacity="0.35" stroke-width="0.981457"/>
<g filter="url(#filter2_dddddd_3_2935)">
<rect x="60.4775" y="377.455" width="343.232" height="162.779" rx="5.58101" fill="#FEFEFE"/>
<path d="M320.692 394.082L322.785 396.174L324.878 394.082" fill="#DEE2ED"/>
<path d="M320.692 394.082L322.785 396.174L324.878 394.082" stroke="#DEE2ED" stroke-width="0.558101" stroke-linecap="round" stroke-linejoin="round"/>
<rect x="274.881" y="390.942" width="39.9972" height="4.88338" rx="2.44169" fill="#DEE2ED"/>
<path d="M380.688 394.082L382.781 396.174L384.874 394.082" fill="#DEE2ED"/>
<path d="M380.688 394.082L382.781 396.174L384.874 394.082" stroke="#DEE2ED" stroke-width="0.558101" stroke-linecap="round" stroke-linejoin="round"/>
<rect x="347.434" y="390.942" width="27.4399" height="4.88338" rx="2.44169" fill="#DEE2ED"/>
<rect x="69.7791" y="386.756" width="143.246" height="9.76676" rx="4.88338" fill="#DEE2ED"/>
<rect x="78.6157" y="412.801" width="13.0223" height="4.88338" rx="2.44169" fill="#DEE2ED"/>
<rect x="70.0116" y="414.429" width="5.11592" height="5.11592" rx="2.55796" fill="#DEE2ED" stroke="#DEE2ED" stroke-width="0.465084"/>
<rect x="113.497" y="412.801" width="13.4874" height="4.88338" rx="2.44169" fill="#DEE2ED"/>
<rect x="104.893" y="414.429" width="5.11592" height="5.11592" rx="2.55796" fill="#DEE2ED" stroke="#DEE2ED" stroke-width="0.465084"/>
<rect x="148.843" y="412.801" width="13.0223" height="4.88338" rx="2.44169" fill="#DEE2ED"/>
<rect x="140.239" y="414.429" width="5.11592" height="5.11592" rx="2.55796" fill="#DEE2ED" stroke="#DEE2ED" stroke-width="0.465084"/>
<rect x="183.724" y="412.801" width="14.8827" height="4.88338" rx="2.44169" fill="#DEE2ED"/>
<rect x="175.12" y="414.429" width="5.11592" height="5.11592" rx="2.55796" fill="#DEE2ED" stroke="#DEE2ED" stroke-width="0.465084"/>
<rect x="394.088" y="450.24" width="8.37151" height="21.0751" rx="4.18575" transform="rotate(90 394.088 450.24)" fill="#DEE2ED" stroke="#DEE2ED" stroke-width="0.465084"/>
<rect x="370.688" y="450.24" width="8.37151" height="21.0751" transform="rotate(90 370.688 450.24)" fill="#DEE2ED" stroke="#DEE2ED" stroke-width="0.465084"/>
<rect x="347.287" y="450.24" width="8.37151" height="61.3911" transform="rotate(90 347.287 450.24)" fill="#DEE2ED" stroke="#DEE2ED" stroke-width="0.465084"/>
<rect x="283.57" y="450.24" width="8.37151" height="186.499" transform="rotate(90 283.57 450.24)" fill="#DEE2ED" stroke="#DEE2ED" stroke-width="0.465084"/>
<rect x="69.7786" y="450.938" width="23.2542" height="4.06948" rx="2.03474" transform="rotate(90 69.7786 450.938)" fill="#E6E6E6" fill-opacity="0.01"/>
<rect x="394.407" y="472.099" width="8.37151" height="73.0182" rx="4.18575" transform="rotate(90 394.407 472.099)" fill="#DEE2ED" stroke="#DEE2ED" stroke-width="0.465084"/>
<rect x="319.063" y="472.099" width="8.37151" height="84.6452" transform="rotate(90 319.063 472.099)" fill="#DEE2ED" stroke="#DEE2ED" stroke-width="0.465084"/>
<rect x="232.093" y="472.099" width="8.37151" height="61.3911" transform="rotate(90 232.093 472.099)" fill="#DEE2ED" stroke="#DEE2ED" stroke-width="0.465084"/>
<rect x="168.376" y="472.099" width="8.37151" height="71.1578" transform="rotate(90 168.376 472.099)" fill="#DEE2ED" stroke="#DEE2ED" stroke-width="0.465084"/>
<rect x="69.7786" y="472.797" width="23.7193" height="4.06948" rx="2.03474" transform="rotate(90 69.7786 472.797)" fill="#E6E6E6" fill-opacity="0.01"/>
<rect x="394.174" y="493.958" width="8.37151" height="148.362" rx="4.18576" transform="rotate(90 394.174 493.958)" fill="#DEE2ED" stroke="#DEE2ED" stroke-width="0.465084"/>
<rect x="243.487" y="493.958" width="8.37151" height="99.0628" transform="rotate(90 243.487 493.958)" fill="#DEE2ED" stroke="#DEE2ED" stroke-width="0.465084"/>
<rect x="142.099" y="493.958" width="8.37151" height="25.5796" transform="rotate(90 142.099 493.958)" fill="#DEE2ED" stroke="#DEE2ED" stroke-width="0.465084"/>
<rect x="114.194" y="493.958" width="8.37151" height="16.743" transform="rotate(90 114.194 493.958)" fill="#DEE2ED" stroke="#DEE2ED" stroke-width="0.465084"/>
<rect x="69.7786" y="494.656" width="23.7193" height="4.06948" rx="2.03474" transform="rotate(90 69.7786 494.656)" fill="#E6E6E6" fill-opacity="0.01"/>
<rect x="394.175" y="515.817" width="8.37151" height="7.44134" rx="3.72067" transform="rotate(90 394.175 515.817)" fill="#DEE2ED" stroke="#DEE2ED" stroke-width="0.465084"/>
<rect x="384.408" y="515.817" width="8.37151" height="34.8813" transform="rotate(90 384.408 515.817)" fill="#DEE2ED" stroke="#DEE2ED" stroke-width="0.465084"/>
<rect x="347.201" y="515.817" width="8.37151" height="111.62" transform="rotate(90 347.201 515.817)" fill="#DEE2ED" stroke="#DEE2ED" stroke-width="0.465084"/>
<rect x="233.256" y="515.817" width="8.37151" height="137.2" transform="rotate(90 233.256 515.817)" fill="#DEE2ED" stroke="#DEE2ED" stroke-width="0.465084"/>
<rect x="69.7788" y="516.515" width="22.324" height="4.06948" rx="2.03474" transform="rotate(90 69.7788 516.515)" fill="#E6E6E6" fill-opacity="0.01"/>
<rect x="60.7101" y="377.687" width="342.767" height="162.314" rx="5.34846" stroke="#F0F3FA" stroke-width="0.465084"/>
</g>
<g filter="url(#filter3_dddddd_3_2935)">
<rect x="474.056" y="150.774" width="215.044" height="346.46" rx="5.97344" fill="#FEFEFE"/>
<rect x="484.012" y="160.73" width="47.7876" height="10.4535" rx="5.22676" fill="#DEE2ED"/>
<rect x="484.012" y="178.651" width="66.7812" height="5.22676" rx="2.61338" fill="#DEE2ED"/>
<path d="M664.04 172.074L666.28 174.315L668.52 172.074" fill="#DEE2ED"/>
<path d="M664.04 172.074L666.28 174.315L668.52 172.074" stroke="#DEE2ED" stroke-width="0.597344" stroke-linecap="round" stroke-linejoin="round"/>
<rect x="623.47" y="168.715" width="34.3473" height="5.22676" rx="2.61338" fill="#DEE2ED"/>
<line x1="507.097" y1="204.886" x2="670.682" y2="204.886" stroke="#DDE2E7" stroke-width="0.41223" stroke-dasharray="1.99 1.99"/>
<rect x="484.012" y="201.588" width="16.4892" height="5.04982" rx="2.52491" fill="#DEE2ED"/>
<line x1="507.097" y1="237.281" x2="670.682" y2="237.281" stroke="#DDE2E7" stroke-width="0.41223" stroke-dasharray="1.99 1.99"/>
<rect x="484.012" y="233.983" width="16.4892" height="5.04982" rx="2.52491" fill="#DEE2ED"/>
<line x1="505.448" y1="269.676" x2="670.682" y2="269.676" stroke="#DDE2E7" stroke-width="0.41223" stroke-dasharray="1.99 1.99"/>
<rect x="484.012" y="266.378" width="14.8403" height="5.04982" rx="2.52491" fill="#DEE2ED"/>
<line x1="503.799" y1="302.071" x2="670.682" y2="302.071" stroke="#DDE2E7" stroke-width="0.41223" stroke-dasharray="1.99 1.99"/>
<rect x="484.012" y="298.773" width="13.1914" height="5.04982" rx="2.52491" fill="#DEE2ED"/>
<line x1="505.036" y1="334.466" x2="670.682" y2="334.466" stroke="#DDE2E7" stroke-width="0.41223" stroke-dasharray="1.99 1.99"/>
<rect x="484.012" y="331.168" width="14.428" height="5.04982" rx="2.52491" fill="#DEE2ED"/>
<line x1="505.036" y1="366.861" x2="670.682" y2="366.861" stroke="#DDE2E7" stroke-width="0.41223" stroke-dasharray="1.99 1.99"/>
<rect x="484.012" y="363.563" width="14.428" height="5.04982" rx="2.52491" fill="#DEE2ED"/>
<line x1="507.097" y1="399.256" x2="670.682" y2="399.256" stroke="#DDE2E7" stroke-width="0.41223" stroke-dasharray="1.99 1.99"/>
<rect x="484.012" y="395.958" width="16.4892" height="5.04982" rx="2.52491" fill="#DEE2ED"/>
<line x1="507.097" y1="431.651" x2="670.682" y2="431.651" stroke="#DDE2E7" stroke-width="0.41223" stroke-dasharray="1.99 1.99"/>
<rect x="484.012" y="428.353" width="16.4892" height="5.04982" rx="2.52491" fill="#DEE2ED"/>
<line x1="507.097" y1="464.046" x2="670.682" y2="464.046" stroke="#DDE2E7" stroke-width="0.41223" stroke-dasharray="1.99 1.99"/>
<rect x="484.012" y="460.748" width="16.4892" height="5.04982" rx="2.52491" fill="#DEE2ED"/>
<rect x="676.904" y="201.837" width="1.97559" height="116.575" rx="0.987796" fill="#DEE2ED" stroke="#DEE2ED" stroke-width="0.497787"/>
<rect x="512.386" y="209.513" width="148.022" height="55.8844" rx="3.9823" fill="#52A3FC"/>
<g clip-path="url(#clip7_3_2935)">
<path d="M650.95 219.193C649.507 219.193 648.336 220.364 648.336 221.806C648.336 223.249 649.507 224.42 650.95 224.42C652.392 224.42 653.563 223.249 653.563 221.806C653.563 220.364 652.392 219.193 650.95 219.193Z" fill="white" stroke="white" stroke-width="0.597344" stroke-miterlimit="10"/>
<path d="M650.949 220.064V222.024H652.256" fill="white"/>
<path d="M650.949 220.064V222.024H652.256" stroke="white" stroke-width="0.597344" stroke-linecap="round" stroke-linejoin="round"/>
</g>
<rect x="607.961" y="217.478" width="37.5129" height="5.04982" rx="2.52491" fill="white"/>
<rect x="518.359" y="247.54" width="46.9942" height="5.77122" rx="2.88561" fill="white"/>
<rect x="575.379" y="247.54" width="30.9172" height="5.77122" rx="2.88561" fill="white"/>
<rect x="569.584" y="251.705" width="1.56336" height="1.56336" rx="0.781681" fill="white" stroke="white" stroke-width="0.497787"/>
<rect x="518.359" y="229.619" width="75.1658" height="8" rx="4" fill="white"/>
<rect x="512.386" y="273.728" width="148.022" height="55.8844" rx="3.9823" fill="#44C9A5"/>
<path d="M650.95 283.407C649.507 283.407 648.336 284.578 648.336 286.021C648.336 287.464 649.507 288.634 650.95 288.634C652.392 288.634 653.563 287.464 653.563 286.021C653.563 284.578 652.392 283.407 650.95 283.407Z" fill="white" stroke="white" stroke-width="0.597344" stroke-miterlimit="10"/>
<path d="M650.949 284.279V286.239H652.256" fill="white"/>
<path d="M650.949 284.279V286.239H652.256" stroke="white" stroke-width="0.597344" stroke-linecap="round" stroke-linejoin="round"/>
<rect x="607.961" y="281.693" width="37.5129" height="5.04982" rx="2.52491" fill="white"/>
<rect x="518.359" y="311.754" width="46.9942" height="5.77122" rx="2.88561" fill="white"/>
<rect x="575.379" y="311.754" width="30.9172" height="5.77122" rx="2.88561" fill="white"/>
<rect x="569.584" y="315.919" width="1.56336" height="1.56336" rx="0.781681" fill="white" stroke="white" stroke-width="0.497787"/>
<rect x="518.359" y="293.834" width="62.2234" height="8" rx="4" fill="white"/>
<rect x="512.386" y="338.938" width="148.022" height="55.8844" rx="3.9823" fill="#F3935C"/>
<g clip-path="url(#clip8_3_2935)">
<path d="M650.95 348.617C649.507 348.617 648.336 349.788 648.336 351.231C648.336 352.674 649.507 353.844 650.95 353.844C652.392 353.844 653.563 352.674 653.563 351.231C653.563 349.788 652.392 348.617 650.95 348.617Z" fill="white" stroke="white" stroke-width="0.597344" stroke-miterlimit="10"/>
<path d="M650.949 349.489V351.449H652.256" fill="white"/>
<path d="M650.949 349.489V351.449H652.256" stroke="white" stroke-width="0.597344" stroke-linecap="round" stroke-linejoin="round"/>
</g>
<rect x="607.961" y="346.903" width="37.5129" height="5.04982" rx="2.52491" fill="white"/>
<rect x="518.359" y="376.964" width="46.9942" height="5.77122" rx="2.88561" fill="white"/>
<rect x="575.379" y="376.964" width="30.9172" height="5.77122" rx="2.88561" fill="white"/>
<rect x="569.584" y="381.13" width="1.56336" height="1.56336" rx="0.781681" fill="white" stroke="white" stroke-width="0.497787"/>
<rect x="518.359" y="359.044" width="60.73" height="8" rx="4" fill="white"/>
<rect x="474.305" y="151.023" width="214.546" height="345.962" rx="5.72455" stroke="#F0F3FA" stroke-width="0.497787"/>
</g>
<defs>
<filter id="filter0_dddddd_3_2935" x="48.0302" y="177.144" width="610.751" height="411.036" filterUnits="userSpaceOnUse" color-interpolation-filters="sRGB">
<feFlood flood-opacity="0" result="BackgroundImageFix"/>
<feColorMatrix in="SourceAlpha" type="matrix" values="0 0 0 0 0 0 0 0 0 0 0 0 0 0 0 0 0 0 127 0" result="hardAlpha"/>
<feOffset dy="1.10754"/>
<feGaussianBlur stdDeviation="0.443016"/>
<feColorMatrix type="matrix" values="0 0 0 0 0.462745 0 0 0 0 0.52549 0 0 0 0 0.611765 0 0 0 0.07 0"/>
<feBlend mode="normal" in2="BackgroundImageFix" result="effect1_dropShadow_3_2935"/>
<feColorMatrix in="SourceAlpha" type="matrix" values="0 0 0 0 0 0 0 0 0 0 0 0 0 0 0 0 0 0 127 0" result="hardAlpha"/>
<feOffset dy="2.66157"/>
<feGaussianBlur stdDeviation="1.06463"/>
<feColorMatrix type="matrix" values="0 0 0 0 0.462745 0 0 0 0 0.52549 0 0 0 0 0.611765 0 0 0 0.0503198 0"/>
<feBlend mode="normal" in2="effect1_dropShadow_3_2935" result="effect2_dropShadow_3_2935"/>
<feColorMatrix in="SourceAlpha" type="matrix" values="0 0 0 0 0 0 0 0 0 0 0 0 0 0 0 0 0 0 127 0" result="hardAlpha"/>
<feOffset dy="5.0115"/>
<feGaussianBlur stdDeviation="2.0046"/>
<feColorMatrix type="matrix" values="0 0 0 0 0.462745 0 0 0 0 0.52549 0 0 0 0 0.611765 0 0 0 0.0417275 0"/>
<feBlend mode="normal" in2="effect2_dropShadow_3_2935" result="effect3_dropShadow_3_2935"/>
<feColorMatrix in="SourceAlpha" type="matrix" values="0 0 0 0 0 0 0 0 0 0 0 0 0 0 0 0 0 0 127 0" result="hardAlpha"/>
<feOffset dy="8.93967"/>
<feGaussianBlur stdDeviation="3.57587"/>
<feColorMatrix type="matrix" values="0 0 0 0 0.462745 0 0 0 0 0.52549 0 0 0 0 0.611765 0 0 0 0.035 0"/>
<feBlend mode="normal" in2="effect3_dropShadow_3_2935" result="effect4_dropShadow_3_2935"/>
<feColorMatrix in="SourceAlpha" type="matrix" values="0 0 0 0 0 0 0 0 0 0 0 0 0 0 0 0 0 0 127 0" result="hardAlpha"/>
<feOffset dy="16.7207"/>
<feGaussianBlur stdDeviation="6.68826"/>
<feColorMatrix type="matrix" values="0 0 0 0 0.462745 0 0 0 0 0.52549 0 0 0 0 0.611765 0 0 0 0.0282725 0"/>
<feBlend mode="normal" in2="effect4_dropShadow_3_2935" result="effect5_dropShadow_3_2935"/>
<feColorMatrix in="SourceAlpha" type="matrix" values="0 0 0 0 0 0 0 0 0 0 0 0 0 0 0 0 0 0 127 0" result="hardAlpha"/>
<feOffset dy="40.023"/>
<feGaussianBlur stdDeviation="16.0092"/>
<feColorMatrix type="matrix" values="0 0 0 0 0.464271 0 0 0 0 0.525439 0 0 0 0 0.610729 0 0 0 0.0197 0"/>
<feBlend mode="normal" in2="effect5_dropShadow_3_2935" result="effect6_dropShadow_3_2935"/>
<feBlend mode="normal" in="SourceGraphic" in2="effect6_dropShadow_3_2935" result="shape"/>
</filter>
<filter id="filter1_d_3_2935" x="75.6461" y="172.341" width="46.827" height="348.6" filterUnits="userSpaceOnUse" color-interpolation-filters="sRGB">
<feFlood flood-opacity="0" result="BackgroundImageFix"/>
<feColorMatrix in="SourceAlpha" type="matrix" values="0 0 0 0 0 0 0 0 0 0 0 0 0 0 0 0 0 0 127 0" result="hardAlpha"/>
<feOffset dx="0.40023"/>
<feGaussianBlur stdDeviation="2.40138"/>
<feColorMatrix type="matrix" values="0 0 0 0 0.0941176 0 0 0 0 0.145098 0 0 0 0 0.196078 0 0 0 0.04 0"/>
<feBlend mode="normal" in2="BackgroundImageFix" result="effect1_dropShadow_3_2935"/>
<feBlend mode="normal" in="SourceGraphic" in2="effect1_dropShadow_3_2935" result="shape"/>
</filter>
<filter id="filter2_dddddd_3_2935" x="23.2708" y="377.455" width="417.645" height="246.494" filterUnits="userSpaceOnUse" color-interpolation-filters="sRGB">
<feFlood flood-opacity="0" result="BackgroundImageFix"/>
<feColorMatrix in="SourceAlpha" type="matrix" values="0 0 0 0 0 0 0 0 0 0 0 0 0 0 0 0 0 0 127 0" result="hardAlpha"/>
<feOffset dy="1.28701"/>
<feGaussianBlur stdDeviation="0.514802"/>
<feColorMatrix type="matrix" values="0 0 0 0 0.462745 0 0 0 0 0.52549 0 0 0 0 0.611765 0 0 0 0.07 0"/>
<feBlend mode="normal" in2="BackgroundImageFix" result="effect1_dropShadow_3_2935"/>
<feColorMatrix in="SourceAlpha" type="matrix" values="0 0 0 0 0 0 0 0 0 0 0 0 0 0 0 0 0 0 127 0" result="hardAlpha"/>
<feOffset dy="3.09285"/>
<feGaussianBlur stdDeviation="1.23714"/>
<feColorMatrix type="matrix" values="0 0 0 0 0.462745 0 0 0 0 0.52549 0 0 0 0 0.611765 0 0 0 0.0503198 0"/>
<feBlend mode="normal" in2="effect1_dropShadow_3_2935" result="effect2_dropShadow_3_2935"/>
<feColorMatrix in="SourceAlpha" type="matrix" values="0 0 0 0 0 0 0 0 0 0 0 0 0 0 0 0 0 0 127 0" result="hardAlpha"/>
<feOffset dy="5.82357"/>
<feGaussianBlur stdDeviation="2.32943"/>
<feColorMatrix type="matrix" values="0 0 0 0 0.462745 0 0 0 0 0.52549 0 0 0 0 0.611765 0 0 0 0.0417275 0"/>
<feBlend mode="normal" in2="effect2_dropShadow_3_2935" result="effect3_dropShadow_3_2935"/>
<feColorMatrix in="SourceAlpha" type="matrix" values="0 0 0 0 0 0 0 0 0 0 0 0 0 0 0 0 0 0 127 0" result="hardAlpha"/>
<feOffset dy="10.3883"/>
<feGaussianBlur stdDeviation="4.1553"/>
<feColorMatrix type="matrix" values="0 0 0 0 0.462745 0 0 0 0 0.52549 0 0 0 0 0.611765 0 0 0 0.035 0"/>
<feBlend mode="normal" in2="effect3_dropShadow_3_2935" result="effect4_dropShadow_3_2935"/>
<feColorMatrix in="SourceAlpha" type="matrix" values="0 0 0 0 0 0 0 0 0 0 0 0 0 0 0 0 0 0 127 0" result="hardAlpha"/>
<feOffset dy="19.4301"/>
<feGaussianBlur stdDeviation="7.77204"/>
<feColorMatrix type="matrix" values="0 0 0 0 0.462745 0 0 0 0 0.52549 0 0 0 0 0.611765 0 0 0 0.0282725 0"/>
<feBlend mode="normal" in2="effect4_dropShadow_3_2935" result="effect5_dropShadow_3_2935"/>
<feColorMatrix in="SourceAlpha" type="matrix" values="0 0 0 0 0 0 0 0 0 0 0 0 0 0 0 0 0 0 127 0" result="hardAlpha"/>
<feOffset dy="46.5084"/>
<feGaussianBlur stdDeviation="18.6033"/>
<feColorMatrix type="matrix" values="0 0 0 0 0.464271 0 0 0 0 0.525439 0 0 0 0 0.610729 0 0 0 0.0197 0"/>
<feBlend mode="normal" in2="effect5_dropShadow_3_2935" result="effect6_dropShadow_3_2935"/>
<feBlend mode="normal" in="SourceGraphic" in2="effect6_dropShadow_3_2935" result="shape"/>
</filter>
<filter id="filter3_dddddd_3_2935" x="434.233" y="150.774" width="294.69" height="437.555" filterUnits="userSpaceOnUse" color-interpolation-filters="sRGB">
<feFlood flood-opacity="0" result="BackgroundImageFix"/>
<feColorMatrix in="SourceAlpha" type="matrix" values="0 0 0 0 0 0 0 0 0 0 0 0 0 0 0 0 0 0 127 0" result="hardAlpha"/>
<feOffset dy="1.3775"/>
<feGaussianBlur stdDeviation="0.551002"/>
<feColorMatrix type="matrix" values="0 0 0 0 0.462745 0 0 0 0 0.52549 0 0 0 0 0.611765 0 0 0 0.07 0"/>
<feBlend mode="normal" in2="BackgroundImageFix" result="effect1_dropShadow_3_2935"/>
<feColorMatrix in="SourceAlpha" type="matrix" values="0 0 0 0 0 0 0 0 0 0 0 0 0 0 0 0 0 0 127 0" result="hardAlpha"/>
<feOffset dy="3.31033"/>
<feGaussianBlur stdDeviation="1.32413"/>
<feColorMatrix type="matrix" values="0 0 0 0 0.462745 0 0 0 0 0.52549 0 0 0 0 0.611765 0 0 0 0.0503198 0"/>
<feBlend mode="normal" in2="effect1_dropShadow_3_2935" result="effect2_dropShadow_3_2935"/>
<feColorMatrix in="SourceAlpha" type="matrix" values="0 0 0 0 0 0 0 0 0 0 0 0 0 0 0 0 0 0 127 0" result="hardAlpha"/>
<feOffset dy="6.23307"/>
<feGaussianBlur stdDeviation="2.49323"/>
<feColorMatrix type="matrix" values="0 0 0 0 0.462745 0 0 0 0 0.52549 0 0 0 0 0.611765 0 0 0 0.0417275 0"/>
<feBlend mode="normal" in2="effect2_dropShadow_3_2935" result="effect3_dropShadow_3_2935"/>
<feColorMatrix in="SourceAlpha" type="matrix" values="0 0 0 0 0 0 0 0 0 0 0 0 0 0 0 0 0 0 127 0" result="hardAlpha"/>
<feOffset dy="11.1187"/>
<feGaussianBlur stdDeviation="4.44749"/>
<feColorMatrix type="matrix" values="0 0 0 0 0.462745 0 0 0 0 0.52549 0 0 0 0 0.611765 0 0 0 0.035 0"/>
<feBlend mode="normal" in2="effect3_dropShadow_3_2935" result="effect4_dropShadow_3_2935"/>
<feColorMatrix in="SourceAlpha" type="matrix" values="0 0 0 0 0 0 0 0 0 0 0 0 0 0 0 0 0 0 127 0" result="hardAlpha"/>
<feOffset dy="20.7964"/>
<feGaussianBlur stdDeviation="8.31854"/>
<feColorMatrix type="matrix" values="0 0 0 0 0.462745 0 0 0 0 0.52549 0 0 0 0 0.611765 0 0 0 0.0282725 0"/>
<feBlend mode="normal" in2="effect4_dropShadow_3_2935" result="effect5_dropShadow_3_2935"/>
<feColorMatrix in="SourceAlpha" type="matrix" values="0 0 0 0 0 0 0 0 0 0 0 0 0 0 0 0 0 0 127 0" result="hardAlpha"/>
<feOffset dy="49.7787"/>
<feGaussianBlur stdDeviation="19.9115"/>
<feColorMatrix type="matrix" values="0 0 0 0 0.464271 0 0 0 0 0.525439 0 0 0 0 0.610729 0 0 0 0.0197 0"/>
<feBlend mode="normal" in2="effect5_dropShadow_3_2935" result="effect6_dropShadow_3_2935"/>
<feBlend mode="normal" in="SourceGraphic" in2="effect6_dropShadow_3_2935" result="shape"/>
</filter>
<linearGradient id="paint0_linear_3_2935" x1="353.406" y1="177.144" x2="353.473" y2="850.203" gradientUnits="userSpaceOnUse">
<stop stop-color="white"/>
<stop offset="1" stop-color="#F1F5FB"/>
</linearGradient>
<linearGradient id="paint1_linear_3_2935" x1="254.546" y1="-67.8273" x2="254.177" y2="368.055" gradientUnits="userSpaceOnUse">
<stop stop-color="white"/>
<stop offset="1" stop-color="#F1F5FB"/>
</linearGradient>
<clipPath id="clip0_3_2935">
<rect x="80.0486" y="177.144" width="546.714" height="338.995" rx="9.60553" fill="white"/>
</clipPath>
<clipPath id="clip1_3_2935">
<rect width="9.20529" height="9.20529" fill="white" transform="translate(521.502 195.054)"/>
</clipPath>
<clipPath id="clip2_3_2935">
<rect width="279.361" height="81.2467" fill="white" transform="translate(138.482 265.994)"/>
</clipPath>
<clipPath id="clip3_3_2935">
<rect width="5.60322" height="5.60322" fill="white" transform="translate(178.906 321.226)"/>
</clipPath>
<clipPath id="clip4_3_2935">
<rect width="5.60322" height="5.60322" fill="white" transform="translate(300.175 321.226)"/>
</clipPath>
<clipPath id="clip5_3_2935">
<rect width="9.36539" height="9.36539" fill="white" transform="translate(94.8572 284.005)"/>
</clipPath>
<clipPath id="clip6_3_2935">
<rect width="9.36539" height="9.36539" fill="white" transform="translate(94.8574 237.579)"/>
</clipPath>
<clipPath id="clip7_3_2935">
<rect width="6.96902" height="6.96902" fill="white" transform="translate(647.465 218.322)"/>
</clipPath>
<clipPath id="clip8_3_2935">
<rect width="6.96902" height="6.96902" fill="white" transform="translate(647.465 347.747)"/>
</clipPath>
</defs>
</svg>
