<svg width="228" height="47" viewBox="0 0 228 47" fill="none" xmlns="http://www.w3.org/2000/svg">
<path d="M99.2 37H111.808V35.08H101.312V15.24H99.2V37ZM116.269 19.144C117.133 19.144 117.741 18.536 117.741 17.736C117.741 16.904 117.165 16.264 116.269 16.264C115.373 16.264 114.797 16.904 114.797 17.736C114.797 18.504 115.373 19.144 116.269 19.144ZM115.277 37H117.229V22.856H115.277V37ZM129.575 22.568C127.271 22.568 125.255 23.592 124.103 25.32C124.135 24.072 124.167 22.76 124.167 21.416V14.056H122.215V37H123.719L124.007 34.536C125.191 36.264 127.175 37.32 129.575 37.32C133.767 37.32 136.679 34.184 136.679 29.864C136.679 25.672 133.735 22.568 129.575 22.568ZM129.447 35.464C126.183 35.464 124.071 33.128 124.071 29.928C124.071 26.728 126.247 24.392 129.447 24.392C132.583 24.392 134.727 26.696 134.727 29.928C134.727 33.16 132.583 35.464 129.447 35.464ZM146.636 22.568C144.652 22.568 143.308 23.464 142.508 24.936L142.124 22.856H140.652V37H142.604V28.808C142.604 26.056 144.172 24.424 146.476 24.424C147.276 24.424 147.82 24.584 148.364 24.776L148.94 23.048C148.3 22.76 147.532 22.568 146.636 22.568ZM157.202 22.504C153.01 22.504 150.066 25.8 150.066 29.896C150.066 34.28 153.074 37.352 157.362 37.352C159.602 37.352 161.33 36.584 162.77 35.208L161.65 33.8C160.562 34.92 159.314 35.528 157.33 35.528C154.674 35.528 152.37 33.736 152.05 30.728H163.378C163.442 30.248 163.474 29.8 163.474 29.352C163.474 25.224 161.138 22.504 157.202 22.504ZM157.17 24.328C159.762 24.328 161.49 25.992 161.554 29H152.114C152.498 26.184 154.546 24.328 157.17 24.328ZM173.262 37.352C175.726 37.352 177.262 36.616 178.734 35.24L177.646 33.832C176.494 34.92 175.342 35.528 173.422 35.528C170.478 35.528 168.206 33.288 168.206 29.896C168.206 26.568 170.51 24.36 173.454 24.36C175.118 24.36 176.238 24.808 177.39 25.8L178.51 24.456C177.07 23.176 175.502 22.536 173.454 22.536C169.614 22.536 166.222 25.224 166.222 29.896C166.222 34.76 169.742 37.352 173.262 37.352ZM181.997 37H183.949L183.917 14.056H181.965L181.997 37ZM194.086 22.696C192.294 22.696 190.47 23.144 188.549 24.04L189.222 25.704C190.79 24.968 192.358 24.52 193.894 24.52C196.07 24.52 197.478 25.512 197.478 27.496V28.456C196.742 28.36 195.942 28.328 194.885 28.328C190.726 28.328 187.814 30.152 187.814 33.32C187.814 35.752 189.574 37.256 192.326 37.256C194.822 37.256 196.646 36.136 197.67 34.44L198.022 37H199.462V27.592C199.462 24.392 197.318 22.696 194.086 22.696ZM192.646 35.432C190.886 35.432 189.862 34.6 189.862 33.192C189.862 31.112 191.846 29.96 195.174 29.96C196.102 29.96 196.71 29.992 197.478 30.088C197.382 33.32 195.558 35.432 192.646 35.432ZM208.278 37.256C211.062 37.256 213.078 35.656 213.078 33.288C213.078 30.92 211.126 29.8 208.566 28.84C206.902 28.2 205.59 27.56 205.59 26.28C205.59 24.968 206.87 24.488 208.31 24.488C209.462 24.488 210.614 24.808 211.638 25.384L212.502 23.976C211.222 23.144 209.75 22.696 208.214 22.696C205.814 22.696 203.638 23.912 203.638 26.28C203.638 28.552 205.558 29.64 207.862 30.536C209.558 31.208 211.126 31.912 211.126 33.288C211.126 34.568 210.006 35.432 208.278 35.432C206.71 35.432 205.366 35.048 204.118 34.152L203.126 35.688C204.63 36.712 206.294 37.256 208.278 37.256ZM220.966 37.256C223.75 37.256 225.766 35.656 225.766 33.288C225.766 30.92 223.814 29.8 221.254 28.84C219.59 28.2 218.278 27.56 218.278 26.28C218.278 24.968 219.558 24.488 220.998 24.488C222.15 24.488 223.302 24.808 224.326 25.384L225.19 23.976C223.91 23.144 222.438 22.696 220.902 22.696C218.502 22.696 216.326 23.912 216.326 26.28C216.326 28.552 218.246 29.64 220.55 30.536C222.246 31.208 223.814 31.912 223.814 33.288C223.814 34.568 222.694 35.432 220.966 35.432C219.398 35.432 218.054 35.048 216.806 34.152L215.814 35.688C217.318 36.712 218.982 37.256 220.966 37.256Z" fill="#0E3764"/>
<rect width="46.2911" height="33.1124" rx="2.76338" transform="matrix(0.718003 -0.69604 0.954293 0.298872 0 32.2205)" fill="#77BAEE"/>
<rect width="46.2911" height="33.1124" rx="2.76338" transform="matrix(0.718003 -0.69604 0.954293 0.298872 22.1641 36.4697)" fill="#399AE7"/>
</svg>
