<svg width="1470" height="746" viewBox="0 0 1470 746" fill="none" xmlns="http://www.w3.org/2000/svg">
<g clip-path="url(#clip0_232_92)">
<g opacity="0.5">
<path opacity="0.5" d="M160.673 6.7207H431.182H728.751C817.002 6.7207 879.219 93.3071 851.076 176.949L732.792 528.459C710.059 596.019 636.865 632.361 569.305 609.628L-147.64 368.379V6.7207H160.673Z" fill="url(#paint0_linear_232_92)" stroke="#77BAEE" stroke-opacity="0.2" stroke-width="6.72072"/>
<path opacity="0.5" d="M1465.32 5.46045L1167.51 5.46127L731.976 5.46045L625.634 327.123C603.254 394.8 639.974 467.804 707.656 490.184L1465.32 740.699V514.975V5.46045Z" fill="url(#paint1_linear_232_92)" stroke="#77BAEE" stroke-opacity="0.2" stroke-width="6.72072"/>
<path opacity="0.5" d="M1464.9 5.04053H1059.56H755.046L653.817 311.22C631.437 378.906 668.158 451.901 735.833 474.281L1464.9 715.337V328.895V5.04053Z" fill="white" fill-opacity="0.3" stroke="#77BAEE" stroke-opacity="0.2" stroke-width="6.72072"/>
<path opacity="0.5" d="M1464.91 5.04053H1204.9H766.236L667.89 302.517C645.51 370.194 682.23 443.198 749.905 465.578L1464.91 701.979V389.382L1464.91 5.04053Z" fill="white" fill-opacity="0.3" stroke="#77BAEE" stroke-opacity="0.2" stroke-width="6.72072"/>
<path opacity="0.5" d="M1465.32 4.20044H1078.04H780.097L684.455 293.47C662.075 361.146 698.802 434.15 766.479 456.53L1465.32 687.589V483.472V4.20044Z" fill="white" fill-opacity="0.3" stroke="#77BAEE" stroke-opacity="0.2" stroke-width="6.72072"/>
<path opacity="0.5" d="M1466.58 5.04053L1183.47 5.46057H973.872H792.866L701.414 282.048C679.047 349.73 715.763 422.733 783.441 445.105L1466.58 670.98V483.052V5.04053Z" fill="white" fill-opacity="0.3" stroke="#77BAEE" stroke-opacity="0.2" stroke-width="6.72072"/>
<path opacity="0.5" d="M1464.49 428.026V3.78027H805.04L716.301 272.16C693.93 339.842 730.65 412.845 798.328 435.217L1464.49 655.472V504.894V428.026Z" fill="white" fill-opacity="0.3" stroke="#77BAEE" stroke-opacity="0.2" stroke-width="6.72072"/>
</g>
</g>
<defs>
<linearGradient id="paint0_linear_232_92" x1="867.08" y1="-322.383" x2="-7.76464" y2="-176.82" gradientUnits="userSpaceOnUse">
<stop stop-color="#70ADF5" stop-opacity="0.8"/>
<stop offset="0.609375" stop-color="#D4F1FF" stop-opacity="0.8"/>
<stop offset="1" stop-color="#D4F1FF" stop-opacity="0"/>
</linearGradient>
<linearGradient id="paint1_linear_232_92" x1="1029.03" y1="-433.952" x2="1641.31" y2="207.656" gradientUnits="userSpaceOnUse">
<stop stop-color="#70ADF5" stop-opacity="0.8"/>
<stop offset="0.609375" stop-color="#D4F1FF" stop-opacity="0.8"/>
<stop offset="1" stop-color="#D4F1FF" stop-opacity="0"/>
</linearGradient>
<clipPath id="clip0_232_92">
<rect width="1470" height="746" fill="white"/>
</clipPath>
</defs>
</svg>
