<svg width="281" height="233" viewBox="0 0 281 233" fill="none" xmlns="http://www.w3.org/2000/svg">
<rect width="139.774" height="99.9817" rx="8.34392" transform="matrix(0.718003 -0.69604 0.954293 0.298872 8.99976 97.2886)" fill="#77BAEE"/>
<rect width="139.774" height="99.9817" rx="8.34392" transform="matrix(0.718003 -0.69604 0.954293 0.298872 75.9236 110.119)" fill="#399AE7"/>
<path d="M7.62989 212H32.8828V208.155H11.8601V168.417H7.62989V212ZM41.8184 176.236C43.5489 176.236 44.7667 175.018 44.7667 173.416C44.7667 171.749 43.613 170.468 41.8184 170.468C40.0238 170.468 38.8701 171.749 38.8701 173.416C38.8701 174.954 40.0238 176.236 41.8184 176.236ZM39.8315 212H43.7412V183.671H39.8315V212ZM68.4683 183.094C63.8536 183.094 59.8157 185.145 57.5083 188.606C57.5724 186.106 57.6365 183.479 57.6365 180.787V166.045H53.7268V212H56.7392L57.316 207.065C59.6875 210.526 63.6613 212.641 68.4683 212.641C76.8646 212.641 82.6971 206.36 82.6971 197.707C82.6971 189.311 76.8005 183.094 68.4683 183.094ZM68.212 208.924C61.6744 208.924 57.4442 204.245 57.4442 197.836C57.4442 191.426 61.8026 186.747 68.212 186.747C74.4931 186.747 78.7874 191.362 78.7874 197.836C78.7874 204.309 74.4931 208.924 68.212 208.924ZM102.641 183.094C98.6675 183.094 95.9756 184.889 94.3732 187.837L93.6041 183.671H90.6558V212H94.5655V195.592C94.5655 190.08 97.7061 186.811 102.321 186.811C103.923 186.811 105.013 187.132 106.102 187.516L107.256 184.055C105.974 183.479 104.436 183.094 102.641 183.094ZM123.803 182.966C115.407 182.966 109.51 189.567 109.51 197.771C109.51 206.552 115.535 212.705 124.124 212.705C128.61 212.705 132.071 211.167 134.956 208.411L132.712 205.591C130.533 207.834 128.033 209.052 124.06 209.052C118.74 209.052 114.125 205.463 113.484 199.438H136.173C136.302 198.476 136.366 197.579 136.366 196.682C136.366 188.414 131.687 182.966 123.803 182.966ZM123.739 186.619C128.931 186.619 132.392 189.952 132.52 195.977H113.612C114.381 190.337 118.483 186.619 123.739 186.619ZM164.688 212.769C172.379 212.769 178.339 209.18 181.929 203.989L178.916 201.617C175.712 205.911 170.841 208.86 164.688 208.86C154.112 208.86 146.805 200.463 146.805 190.144C146.805 179.569 154.176 171.557 164.688 171.557C170.905 171.557 175.135 173.736 178.596 177.326L181.096 174.762C176.481 170.083 171.546 167.647 164.688 167.647C151.741 167.647 142.575 177.261 142.575 190.144C142.575 202.578 151.548 212.769 164.688 212.769ZM188.801 212H192.71L192.646 166.045H188.737L188.801 212ZM213.014 183.35C209.424 183.35 205.771 184.248 201.925 186.042L203.271 189.375C206.412 187.901 209.553 187.004 212.629 187.004C216.987 187.004 219.808 188.991 219.808 192.964V194.887C218.333 194.695 216.731 194.631 214.616 194.631C206.284 194.631 200.451 198.284 200.451 204.629C200.451 209.501 203.976 212.513 209.489 212.513C214.488 212.513 218.141 210.27 220.192 206.873L220.897 212H223.781V193.157C223.781 186.747 219.487 183.35 213.014 183.35ZM210.129 208.86C206.604 208.86 204.553 207.193 204.553 204.373C204.553 200.207 208.527 197.9 215.193 197.9C217.052 197.9 218.269 197.964 219.808 198.156C219.615 204.629 215.962 208.86 210.129 208.86ZM241.44 212.513C247.016 212.513 251.054 209.308 251.054 204.565C251.054 199.822 247.145 197.579 242.017 195.656C238.684 194.374 236.056 193.093 236.056 190.529C236.056 187.901 238.62 186.94 241.504 186.94C243.812 186.94 246.119 187.581 248.17 188.734L249.901 185.914C247.337 184.248 244.389 183.35 241.312 183.35C236.505 183.35 232.147 185.786 232.147 190.529C232.147 195.08 235.992 197.259 240.607 199.053C244.004 200.399 247.145 201.809 247.145 204.565C247.145 207.129 244.901 208.86 241.44 208.86C238.3 208.86 235.608 208.091 233.108 206.296L231.121 209.372C234.134 211.423 237.466 212.513 241.44 212.513ZM266.852 212.513C272.429 212.513 276.466 209.308 276.466 204.565C276.466 199.822 272.557 197.579 267.429 195.656C264.096 194.374 261.468 193.093 261.468 190.529C261.468 187.901 264.032 186.94 266.916 186.94C269.224 186.94 271.531 187.581 273.582 188.734L275.313 185.914C272.749 184.248 269.801 183.35 266.724 183.35C261.917 183.35 257.559 185.786 257.559 190.529C257.559 195.08 261.404 197.259 266.019 199.053C269.416 200.399 272.557 201.809 272.557 204.565C272.557 207.129 270.313 208.86 266.852 208.86C263.712 208.86 261.02 208.091 258.52 206.296L256.533 209.372C259.546 211.423 262.879 212.513 266.852 212.513Z" fill="#064FA0"/>
</svg>
